<svg width="53" height="27" viewBox="0 0 53 27" fill="none" xmlns="http://www.w3.org/2000/svg">
<path d="M0.762821 14.6787L9.96692 25.8691C10.2626 26.2272 10.6323 26.4062 11.0019 26.4062C11.3716 26.4062 11.7412 26.2272 12.0369 25.8691C12.6284 25.1529 12.6284 24.0339 12.0369 23.3177L5.34638 15.1711H26.9335C27.7468 15.1711 28.4121 14.3654 28.4121 13.3806C28.4121 12.3959 27.7468 11.5901 26.9335 11.5901H5.34638L12.0369 3.44354C12.6284 2.72735 12.6284 1.60831 12.0369 0.89212C11.4455 0.175934 10.5214 0.175934 9.92996 0.89212L0.725843 12.0825C0.171379 12.8435 0.171392 14.0073 0.762821 14.6787Z" fill="#9A9A9A"/>
<rect width="50" height="4.00171" rx="2.00085" transform="matrix(-1 0 0 1 53 11.3999)" fill="#9A9A9A"/>
</svg>
